# xmcd
#
# Track frame offsets: 
#        150
#        11916
#        23408
#        36924
#        47232
#        58046
#        71278
#        84365
#        96565
#        108744
#        119550
#        131991
#        143726
#        155629
#        170208
#        180398
#        193267
#        204679
#        216977
#        227155
#        240031
#        252343
#        264179
#        280720
#
# Disc length: 3890 seconds
#
# Revision: 1
# Processed by: cddbd v1.5.2PL0 Copyright (c) Steve Scherf et al.
# Submitted via: ExactAudioCopyFreeDBPlugin 1.0
#
DISCID=640f3018
DTITLE=Various Artist - Finders Keepers:  Motown Girls, 1961-67
DYEAR=2013
DGENRE=Soul
TTITLE0=The Velvelettes - Let Love Live (A Little Bit Longer)
TTITLE1=Brenda Holloway - Don't Turn Your Back on Me
TTITLE2=Gladys Knight and The Pips - When Somebody Loves You (You're Nev
TTITLE2=er Alone)
TTITLE3=Martha and The Vandellas - No More Tearstained Make Up
TTITLE4=The Marvelettes - Finders Keepers, Losers Weepers
TTITLE5=Labrenda Ben - Do You Know What I'm Talkin' About
TTITLE6=Mary Wells - What s Easy for Two is So Hard for One
TTITLE7=Thelma Brown - Dance Yeah Dance
TTITLE8=The Andantes - (Like A) Nightmare
TTITLE9=The Supremes - Long Gone Lover
TTITLE10=Carolyn Crawford - Lover Boy
TTITLE11=Brenda Holloway - Till Johnny Comes
TTITLE12=Saundra Mallet and The Vandellas - Camel Walk
TTITLE13=Hattie Littles - My Black Belt
TTITLE14=Martha and The Vandellas - Build Him Up
TTITLE15=Labrenda Ben - I Cant Help It, I Gotta Dance
TTITLE16=The Supremes - Buttered Popcorn
TTITLE17=(unknown artists) - Grass Seems Greener (On the Other Side) (
TTITLE17=acetate attributed to the Marvelettes)
TTITLE18=The Miracles - He Don't Care About Me
TTITLE19=The Vells - You'll Never Cherish a Love So True ('Til You Los
TTITLE19=e It)
TTITLE20=Anita Knorl - If Wishes Came True
TTITLE21=Linda Griner - So Let Them Laugh at Me
TTITLE22=Liz Lands - I Gotta Right to Sing the Blues
TTITLE23=Kim Weston - It's Too Soon to Know
EXTD=
EXTT0=
EXTT1=
EXTT2=
EXTT3=
EXTT4=
EXTT5=
EXTT6=
EXTT7=
EXTT8=
EXTT9=
EXTT10=
EXTT11=
EXTT12=
EXTT13=
EXTT14=
EXTT15=
EXTT16=
EXTT17=
EXTT18=
EXTT19=
EXTT20=
EXTT21=
EXTT22=
EXTT23=
PLAYORDER=
